<?xml version="1.0" encoding="UTF-8" standalone="no"?>
<!-- Created with Inkscape (http://www.inkscape.org/) -->

<svg
   width="36.512505mm"
   height="34.654575mm"
   viewBox="0 0 36.512505 34.654575"
   version="1.1"
   id="svg2315"
   inkscape:version="1.1.1 (3bf5ae0d25, 2021-09-20)"
   sodipodi:docname="scrolldown.svg"
   xmlns:inkscape="http://www.inkscape.org/namespaces/inkscape"
   xmlns:sodipodi="http://sodipodi.sourceforge.net/DTD/sodipodi-0.dtd"
   xmlns="http://www.w3.org/2000/svg"
   xmlns:svg="http://www.w3.org/2000/svg">
  <sodipodi:namedview
     id="namedview2317"
     pagecolor="#ffffff"
     bordercolor="#666666"
     borderopacity="1.0"
     inkscape:pageshadow="2"
     inkscape:pageopacity="0.0"
     inkscape:pagecheckerboard="0"
     inkscape:document-units="mm"
     showgrid="false"
     fit-margin-top="0"
     fit-margin-left="0"
     fit-margin-right="0"
     fit-margin-bottom="0"
     inkscape:zoom="1.4788159"
     inkscape:cx="49.363818"
     inkscape:cy="36.177592"
     inkscape:window-width="1024"
     inkscape:window-height="568"
     inkscape:window-x="0"
     inkscape:window-y="0"
     inkscape:window-maximized="1"
     inkscape:current-layer="layer1" />
  <defs
     id="defs2312" />
  <g
     inkscape:label="Layer 1"
     inkscape:groupmode="layer"
     id="layer1"
     transform="translate(-99.112421,-108.62934)">
    <g
       aria-label="my work     ―     my work    ―    my work    ― "
       id="text2514"
       style="font-size:4.23333px;line-height:1.75;font-family:'Open Sans';-inkscape-font-specification:'Open Sans';word-spacing:0px;display:inline;fill:#e3e3e8;fill-opacity:1"
       transform="matrix(1.0384383,0,0,1.0384383,5.49334,-49.452571)"
       inkscape:export-filename="/home/josneth/Documents/My Projects/Josneth Moreno/User Interface/desktop-ui.svg"
       inkscape:export-xdpi="96"
       inkscape:export-ydpi="96">
      <path
         d="m 122.68909,172.61996 1.461,0.19389 q 0.26843,0.0356 0.41685,-0.0615 0.15047,-0.0968 0.18255,-0.33859 0.0422,-0.31761 -0.12009,-0.49345 -0.16225,-0.17583 -0.54133,-0.22614 l -1.25404,-0.16642 0.0451,-0.34015 1.461,0.19389 q 0.26843,0.0356 0.41685,-0.0615 0.15047,-0.0968 0.18283,-0.34065 0.0424,-0.31965 -0.13034,-0.4948 -0.17099,-0.17282 -0.60745,-0.23075 l -1.17822,-0.15636 0.0451,-0.34015 2.2458,0.29804 -0.0367,0.27663 -0.31471,0.0145 -0.002,0.0164 q 0.15114,0.11806 0.22024,0.30447 0.0688,0.18846 0.04,0.40566 -0.0699,0.52662 -0.4725,0.63792 l -0.002,0.0164 q 0.1629,0.12379 0.24006,0.32795 0.0772,0.20416 0.0448,0.44801 -0.0506,0.38113 -0.27231,0.54354 -0.21996,0.16473 -0.65026,0.10762 l -1.4651,-0.19443 z"
         id="path1606"
         style="fill:#e3e3e8;fill-opacity:1" />
      <path
         d="m 124.64318,174.04382 -0.12191,0.34716 -1.3833,0.04 q -0.47147,0.008 -0.66976,-0.0205 l -0.005,0.0156 q 0.0906,0.0603 0.30237,0.22448 0.21308,0.16684 1.29596,1.05096 l -0.1219,0.34716 -2.11143,-1.77327 q -0.31287,-0.26322 -0.39867,-0.49928 -0.0884,-0.2348 0.005,-0.50004 0.0521,-0.14822 0.13588,-0.28091 l 0.25939,0.0911 q -0.0611,0.0991 -0.10764,0.23167 -0.11711,0.3335 0.20736,0.60736 l 0.26247,0.22581 z"
         id="path1603"
         style="fill:#e3e3e8;fill-opacity:1" />
      <path
         d="m 120.1234,178.16028 1.33326,0.40199 q 0.12298,0.0359 0.54088,0.18941 l 0.009,-0.0137 q -0.25301,-0.27143 -0.38074,-0.43296 l -0.85656,-1.09771 0.22272,-0.32849 2.22197,0.7598 -0.20184,0.2977 q -0.82955,-0.29773 -1.2629,-0.45419 -0.43452,-0.15475 -0.57211,-0.22806 l -0.009,0.0137 q 0.0848,0.0849 0.2109,0.2304 0.12669,0.14833 0.19649,0.2406 l 0.84298,1.07353 -0.2088,0.30796 -1.3035,-0.39431 q -0.35923,-0.10371 -0.58261,-0.20521 l -0.009,0.0137 q 0.057,0.0486 0.16555,0.16469 0.10744,0.11779 1.13824,1.29369 l -0.19951,0.29427 -1.52366,-1.78975 z"
         id="path1600"
         style="fill:#e3e3e8;fill-opacity:1" />
      <path
         d="m 118.62937,181.47384 q -0.38898,-0.39443 -0.40946,-0.81261 -0.019,-0.4167 0.33125,-0.76215 0.21634,-0.21336 0.48427,-0.27727 0.26793,-0.0639 0.54642,0.036 0.27848,0.0999 0.52958,0.35448 0.38898,0.39442 0.40803,0.80821 0.0205,0.41525 -0.32977,0.76069 -0.33851,0.33383 -0.75926,0.3046 -0.42223,-0.0278 -0.80106,-0.41191 z m 1.22892,-1.21195 q -0.30481,-0.30907 -0.58809,-0.34904 -0.28329,-0.04 -0.52318,0.19661 -0.2399,0.23659 -0.20532,0.51893 0.0346,0.28526 0.34081,0.5958 0.30335,0.3076 0.58521,0.34318 0.28183,0.0385 0.52467,-0.20099 0.2399,-0.23658 0.20675,-0.51453 -0.0332,-0.27795 -0.34085,-0.58996 z"
         id="path1597"
         style="fill:#e3e3e8;fill-opacity:1" />
      <path
         d="m 117.88348,183.49874 q -0.12152,0.0895 -0.23277,0.14056 l -0.15043,-0.28454 q 0.13157,-0.0584 0.21814,-0.12209 0.22139,-0.16298 0.24718,-0.45918 0.0241,-0.29497 -0.17317,-0.56298 l -0.72056,-0.9788 0.27633,-0.20342 1.34309,1.82443 -0.22806,0.16789 -0.28039,-0.31464 -0.0133,0.01 q 0.0296,0.25287 -0.0425,0.45481 -0.0721,0.20194 -0.24354,0.32816 z"
         id="path1594"
         style="fill:#e3e3e8;fill-opacity:1" />
      <path
         d="m 116.19704,183.20737 q -0.0173,0.1533 -0.0785,0.42018 l -0.26912,1.03143 -0.35709,0.19572 0.34085,-1.28761 -1.48591,-0.66825 0.36434,-0.1997 1.21612,0.55448 0.11929,-0.31996 -0.40733,-0.74318 0.29727,-0.16293 1.54587,2.82048 -0.29727,0.16293 -0.81963,-1.49544 q -0.0546,-0.0997 -0.15439,-0.31609 z"
         id="path1591"
         style="fill:#e3e3e8;fill-opacity:1" />
      <path
         d="m 108.71669,185.28927 -0.0275,0.31298 -3.87939,-0.34086 0.0275,-0.31298 z"
         id="path1588"
         style="fill:#e3e3e8;fill-opacity:1" />
      <path
         d="m 97.282079,179.5154 -0.988706,1.09297 q -0.181656,0.20081 -0.185947,0.3781 -0.0057,0.17883 0.175205,0.34246 0.237602,0.21493 0.474452,0.18112 0.236851,-0.0338 0.493388,-0.3174 l 0.848651,-0.93815 0.254464,0.23019 -0.988707,1.09297 q -0.181656,0.20081 -0.185947,0.3781 -0.0057,0.17883 0.176738,0.34385 0.239135,0.21632 0.481386,0.17345 0.239331,-0.0427 0.534695,-0.36923 l 0.797344,-0.88142 0.254464,0.23019 -1.519807,1.68007 -0.206943,-0.1872 0.166614,-0.26738 -0.01226,-0.0111 q -0.182982,0.0575 -0.375681,0.009 -0.194231,-0.0503 -0.35672,-0.19726 -0.393958,-0.35638 -0.257135,-0.75105 l -0.01226,-0.0111 q -0.194368,0.0639 -0.406263,0.0116 -0.211895,-0.0523 -0.394312,-0.21733 -0.285122,-0.25792 -0.293028,-0.53266 -0.01083,-0.27459 0.280378,-0.5965 l 0.99148,-1.09603 z"
         id="path1585"
         style="fill:#e3e3e8;fill-opacity:1" />
      <path
         d="m 95.003337,180.32017 -0.217252,-0.29695 0.749735,-1.1632 q 0.260586,-0.39298 0.39588,-0.54063 l -0.0098,-0.0133 q -0.100947,0.0406 -0.356184,0.12228 -0.258124,0.0813 -1.599851,0.47383 l -0.217251,-0.29695 2.65684,-0.73746 q 0.394063,-0.10901 0.637247,-0.0462 0.243631,0.0599 0.409621,0.28683 0.09276,0.12679 0.154717,0.27099 l -0.221878,0.16233 q -0.04711,-0.1064 -0.130104,-0.21984 -0.208708,-0.28528 -0.61811,-0.17272 l -0.334698,0.0886 z"
         id="path1582"
         style="fill:#e3e3e8;fill-opacity:1" />
      <path
         d="m 94.164411,174.26544 -1.085641,0.8721 q -0.0992,0.0811 -0.462134,0.3389 l 0.006,0.0154 q 0.366948,-0.0551 0.572403,-0.0691 l 1.389732,-0.0855 0.144914,0.36948 -1.883398,1.40258 -0.131328,-0.33483 q 0.714746,-0.51569 1.088891,-0.78456 0.373389,-0.27079 0.511676,-0.34279 l -0.006,-0.0154 q -0.117989,0.0219 -0.309293,0.0436 -0.193984,0.0206 -0.309559,0.0259 l -1.362112,0.088 -0.135856,-0.34638 1.062473,-0.85191 q 0.288719,-0.23758 0.498771,-0.36437 l -0.006,-0.0154 q -0.07229,0.0195 -0.229451,0.0434 -0.157911,0.022 -1.710681,0.2069 l -0.129819,-0.33098 2.337762,-0.24414 z"
         id="path1579"
         style="fill:#e3e3e8;fill-opacity:1" />
      <path
         d="m 92.281589,171.15567 q 0.545497,-0.0965 0.90147,0.12387 0.353937,0.22076 0.439656,0.7052 0.05294,0.29921 -0.04644,0.5561 -0.09939,0.25689 -0.339627,0.42955 -0.240241,0.17266 -0.592372,0.23496 -0.545497,0.0965 -0.897039,-0.12256 -0.353577,-0.21872 -0.439296,-0.70315 -0.08284,-0.46816 0.179962,-0.79804 0.26244,-0.33193 0.793689,-0.42593 z m 0.300736,1.69959 q 0.427442,-0.0756 0.621086,-0.28623 0.193644,-0.21059 0.134938,-0.54237 -0.05871,-0.33178 -0.310823,-0.4635 -0.254512,-0.13339 -0.683989,-0.0574 -0.425406,0.0753 -0.61462,0.28719 -0.191608,0.21023 -0.132181,0.54608 0.05871,0.33178 0.306391,0.46218 0.247686,0.1304 0.679198,0.054 z"
         id="path1576"
         style="fill:#e3e3e8;fill-opacity:1" />
      <path
         d="m 91.038373,169.39228 q -0.0047,-0.15082 0.01636,-0.27143 l 0.319653,0.0376 q -0.02662,0.14146 -0.02327,0.24889 0.0086,0.27479 0.237805,0.46411 0.229182,0.18726 0.561817,0.1769 l 1.214839,-0.0378 0.01068,0.34296 -2.264395,0.0705 -0.0088,-0.28305 0.418186,-0.0523 -5.15e-4,-0.0165 q -0.224993,-0.11914 -0.350358,-0.29309 -0.125365,-0.17395 -0.131993,-0.38675 z"
         id="path1573"
         style="fill:#e3e3e8;fill-opacity:1" />
      <path
         d="m 92.234093,168.17048 q -0.116525,-0.1011 -0.301857,-0.30263 l -0.697726,-0.8059 0.0409,-0.40515 0.868247,1.01009 1.392225,-0.84629 -0.04173,0.41338 -1.145671,0.68836 0.19616,0.27949 0.843206,0.0851 -0.03405,0.33728 -3.200072,-0.32306 0.03405,-0.33729 1.696697,0.1713 q 0.113113,0.0114 0.347961,0.0517 z"
         id="path1570"
         style="fill:#e3e3e8;fill-opacity:1" />
      <path
         d="m 94.154472,161.84213 -0.25625,-0.18181 2.253407,-3.17615 0.25625,0.1818 z"
         id="path1567"
         style="fill:#e3e3e8;fill-opacity:1" />
      <path
         d="m 103.83673,155.15392 -0.5496,-1.3675 q -0.10098,-0.25125 -0.25849,-0.33275 -0.15828,-0.0834 -0.3846,0.008 -0.29728,0.11948 -0.37061,0.34722 -0.0733,0.22774 0.0693,0.58256 l 0.47175,1.17378 -0.31838,0.12796 -0.5496,-1.3675 q -0.10098,-0.25125 -0.25849,-0.33275 -0.15828,-0.0834 -0.38651,0.008 -0.2992,0.12025 -0.36676,0.35681 -0.0664,0.23387 0.0978,0.64239 l 0.44323,1.10283 -0.31838,0.12795 -0.84483,-2.10207 0.25893,-0.10406 0.1674,0.26688 0.0153,-0.006 q 0.0285,-0.18967 0.15681,-0.34149 0.13026,-0.1526 0.33356,-0.23431 0.49292,-0.1981 0.78781,0.0977 l 0.0153,-0.006 q 0.0277,-0.20271 0.16752,-0.3703 0.13983,-0.16758 0.36806,-0.25931 0.35674,-0.14338 0.60719,-0.0302 0.2516,0.11052 0.41348,0.51329 l 0.55114,1.37133 z"
         id="path1564"
         style="fill:#e3e3e8;fill-opacity:1" />
      <path
         d="m 104.11699,152.75315 0.36225,-0.0644 0.71461,1.18511 q 0.23821,0.40693 0.31126,0.59339 l 0.0163,-0.003 q 0.008,-0.10849 0.0469,-0.37365 0.0406,-0.26755 0.27853,-1.64513 l 0.36225,-0.0644 -0.50692,2.71029 q -0.0755,0.40184 -0.23895,0.59256 -0.16104,0.19239 -0.43782,0.24161 -0.15467,0.0275 -0.31142,0.0197 l -0.0481,-0.27067 q 0.11628,0.005 0.25467,-0.0201 0.348,-0.0619 0.42709,-0.47904 l 0.0677,-0.33956 z"
         id="path1561"
         style="fill:#e3e3e8;fill-opacity:1" />
      <path
         d="m 109.92353,154.66038 -0.30868,-1.3579 q -0.0295,-0.12469 -0.10234,-0.56387 l -0.0165,-0.001 q -0.11113,0.35404 -0.18853,0.54487 l -0.53169,1.28684 -0.39562,-0.0315 -0.4363,-2.30739 0.35853,0.0285 q 0.15066,0.86839 0.22856,1.32249 0.08,0.45426 0.0841,0.61011 l 0.0165,0.001 q 0.032,-0.11565 0.0962,-0.29716 0.0665,-0.18341 0.11223,-0.28966 l 0.51735,-1.26311 0.3709,0.0295 0.30068,1.32823 q 0.0872,0.3636 0.10919,0.60796 l 0.0165,0.001 q 0.0141,-0.0735 0.0615,-0.22528 0.0494,-0.15159 0.56304,-1.62856 l 0.35442,0.0282 -0.80414,2.20864 z"
         id="path1558"
         style="fill:#e3e3e8;fill-opacity:1" />
      <path
         d="m 113.54345,154.32535 q -0.15157,0.53283 -0.50537,0.75669 -0.35324,0.22188 -0.82643,0.0873 -0.29226,-0.0831 -0.47989,-0.2848 -0.18763,-0.20165 -0.23794,-0.49319 -0.0503,-0.29154 0.0475,-0.6355 0.15157,-0.53283 0.50226,-0.75329 0.35125,-0.22244 0.82443,-0.0878 0.45728,0.13008 0.63916,0.51062 0.18386,0.38111 0.0363,0.90003 z m -1.66013,-0.47224 q -0.11877,0.41751 -0.014,0.68372 0.10479,0.26621 0.42887,0.35839 0.32407,0.0922 0.55272,-0.077 0.23121,-0.17063 0.35054,-0.59014 0.1182,-0.41553 0.0103,-0.67832 -0.10536,-0.26422 -0.43341,-0.35754 -0.32408,-0.0922 -0.54961,0.0736 -0.22553,0.16579 -0.34543,0.58729 z"
         id="path1555"
         style="fill:#e3e3e8;fill-opacity:1" />
      <path
         d="m 115.67561,153.98113 q 0.13761,0.0619 0.23677,0.13372 l -0.17396,0.27079 q -0.11546,-0.0859 -0.21349,-0.13004 -0.25071,-0.11279 -0.52138,0.0102 -0.26879,0.12388 -0.40533,0.42737 l -0.49865,1.10843 -0.31292,-0.14078 0.92946,-2.06604 0.25826,0.11618 -0.13634,0.39878 0.0151,0.007 q 0.20573,-0.14998 0.41703,-0.18638 0.21131,-0.0364 0.40547,0.051 z"
         id="path1552"
         style="fill:#e3e3e8;fill-opacity:1" />
      <path
         d="m 116.25033,155.59402 q 0.14207,-0.0601 0.40461,-0.13784 l 1.03073,-0.2718 0.34579,0.21506 -1.28914,0.33503 0.14712,1.62261 -0.35281,-0.21942 -0.11383,-1.33171 -0.33731,0.0531 -0.44757,0.71967 -0.28787,-0.17903 1.69859,-2.73123 0.28787,0.17903 -0.9006,1.44811 q -0.06,0.0965 -0.19962,0.28967 z"
         id="path1549"
         style="fill:#e3e3e8;fill-opacity:1" />
      <path
         d="m 121.09235,160.09457 0.27552,-0.15101 1.87177,3.41501 -0.27552,0.15101 z"
         id="path1546"
         style="fill:#e3e3e8;fill-opacity:1" />
    </g>
  </g>
</svg>
